<svg xmlns="http://www.w3.org/2000/svg" width="12.394" height="8.342" viewBox="0 0 12.394 8.342">
  <g id="credit-card" transform="translate(0)">
    <path id="Path_32" data-name="Path 32" d="M11.32,0H1.072A1.074,1.074,0,0,0,0,1.073V1.43H12.393V1.073A1.074,1.074,0,0,0,11.32,0Zm0,0" transform="translate(0.001)" fill="#0a0a0a"/>
    <path id="Path_33" data-name="Path 33" d="M0,88.617H12.393v.715H0Zm0,0" transform="translate(0 -86.472)" fill="#0a0a0a"/>
    <path id="Path_34" data-name="Path 34" d="M0,151.386a1.074,1.074,0,0,0,1.073,1.073H11.321a1.074,1.074,0,0,0,1.073-1.073v-3.694H0Zm9.176-2.264h.715a.953.953,0,0,1,0,1.907H9.176a.953.953,0,1,1,0-1.907Zm-2.5.6h.715a.358.358,0,0,1,0,.715H6.673a.358.358,0,0,1,0-.715Zm-1.787,0H5.6a.358.358,0,0,1,0,.715H4.886a.358.358,0,0,1,0-.715Zm0,0" transform="translate(0 -144.117)" fill="#0a0a0a"/>
    <path id="Path_35" data-name="Path 35" d="M369.469,236.785h.715a.238.238,0,0,0,0-.477h-.715a.238.238,0,1,0,0,.477Zm0,0" transform="translate(-360.293 -230.589)" fill="#0a0a0a"/>
  </g>
</svg>
