<svg id="facebook_2_" data-name="facebook (2)" xmlns="http://www.w3.org/2000/svg" width="20" height="20" viewBox="0 0 20 20">
  <g id="Group_30" data-name="Group 30" transform="translate(0 0)">
    <path id="Path_68" data-name="Path 68" d="M17.072,2.929A10,10,0,1,0,6.523,19.378a.316.316,0,0,0,.362-.106.327.327,0,0,0,.064-.2v-5.7a.316.316,0,0,0-.316-.316H4V10.737H6.633a.316.316,0,0,0,.316-.316V10a5.522,5.522,0,0,1,5.579-5.158H13.9V7.158H12.527a3.643,3.643,0,0,0-2.282.722A2.621,2.621,0,0,0,9.264,10v.421a.316.316,0,0,0,.316.316h1.245a.316.316,0,0,0,0-.632H9.9V10c0-1.632,1.418-2.211,2.632-2.211h1.684a.316.316,0,0,0,.316-.316V4.526a.316.316,0,0,0-.316-.316H12.527A6.5,6.5,0,0,0,8.235,5.9,5.526,5.526,0,0,0,6.317,10v.105H3.685a.316.316,0,0,0-.316.316v2.947a.316.316,0,0,0,.316.316H6.317v4.932A9.373,9.373,0,1,1,10,19.368H9.9V13.684h4.316a.316.316,0,0,0,.316-.316V10.421a.316.316,0,0,0-.316-.316H12.363a.316.316,0,0,0,0,.632H13.9v2.316H9.58a.316.316,0,0,0-.316.316v6.306a.316.316,0,0,0,.3.316c.156.007.3.01.435.01A10,10,0,0,0,17.072,2.929Z" transform="translate(-0.001 0)" fill="#0a0a0a"/>
  </g>
</svg>
