<svg xmlns="http://www.w3.org/2000/svg" xmlns:xlink="http://www.w3.org/1999/xlink" width="20" height="20" viewBox="0 0 20 20"><defs><path id="51c1a" d="M1318.071 482.929A9.934 9.934 0 0 0 1311 480a9.989 9.989 0 0 0-7.071 2.929A9.935 9.935 0 0 0 1301 490c0 2.082.634 4.078 1.833 5.772a9.978 9.978 0 0 0 4.689 3.606.316.316 0 0 0 .425-.305v-5.705a.316.316 0 0 0-.315-.315H1305v-2.316h2.632a.316.316 0 0 0 .315-.316V490c0-2.748 2.607-5.158 5.58-5.158h1.368v2.316h-1.369c-.89 0-1.701.256-2.281.722-.642.515-.982 1.248-.982 2.12v.421c0 .174.142.316.316.316h1.245a.316.316 0 0 0 0-.632h-.93V490c0-1.632 1.418-2.21 2.632-2.21h1.684a.316.316 0 0 0 .316-.316v-2.948a.316.316 0 0 0-.316-.315h-1.684c-1.543 0-3.108.614-4.293 1.684-1.236 1.118-1.917 2.576-1.917 4.105v.105h-2.632a.316.316 0 0 0-.316.316v2.947c0 .175.142.316.316.316h2.632v4.932a9.413 9.413 0 0 1-5.684-8.616c0-5.166 4.202-9.368 9.368-9.368 5.16 0 9.368 4.208 9.368 9.368 0 5.166-4.202 9.368-9.368 9.368h-.105v-5.684h4.315a.316.316 0 0 0 .316-.316v-2.947a.316.316 0 0 0-.316-.316h-1.848a.316.316 0 0 0 0 .632h1.533v2.316h-4.316a.316.316 0 0 0-.316.315v6.307c0 .168.133.308.302.315a9.934 9.934 0 0 0 7.506-2.919A9.989 9.989 0 0 0 1321 490a9.935 9.935 0 0 0-2.929-7.071z"/></defs><g><g transform="translate(-1301 -480)"><g><g><use fill="#9e3ffc" xlink:href="#51c1a"/></g></g></g></g></svg>