<svg xmlns="http://www.w3.org/2000/svg" width="113.25" height="25.76" viewBox="0 0 113.25 25.76">
  <g id="Group_73" data-name="Group 73" transform="translate(-1389 -2935)">
    <g id="Group_72" data-name="Group 72">
      <g id="visa" transform="translate(1389 2939.824)">
        <path id="Path_97" data-name="Path 97" d="M184.8,195.585l2.7-15.185h4.218L189.1,195.585Z" transform="translate(-165.313 -179.894)" fill="#3c58bf"/>
        <path id="Path_98" data-name="Path 98" d="M184.8,195.585l3.459-15.185h3.459L189.1,195.585Z" transform="translate(-165.313 -179.894)" fill="#293688"/>
        <path id="Path_99" data-name="Path 99" d="M260.907,176.275a10.7,10.7,0,0,0-3.881-.675c-4.218,0-7.255,2.109-7.255,5.146,0,2.278,2.109,3.459,3.8,4.218s2.193,1.265,2.193,1.94c0,1.012-1.35,1.518-2.531,1.518a9.17,9.17,0,0,1-4.049-.844l-.591-.253L248,190.785a13.679,13.679,0,0,0,4.809.844c4.471,0,7.424-2.109,7.424-5.315,0-1.772-1.1-3.121-3.628-4.218-1.518-.759-2.446-1.181-2.446-1.94,0-.675.759-1.35,2.446-1.35a7.738,7.738,0,0,1,3.206.59l.422.169.675-3.29Z" transform="translate(-221.848 -175.6)" fill="#3c58bf"/>
        <path id="Path_100" data-name="Path 100" d="M260.907,176.275a10.7,10.7,0,0,0-3.881-.675c-4.218,0-6.5,2.109-6.5,5.146,0,2.278,1.35,3.459,3.037,4.218s2.193,1.265,2.193,1.94c0,1.012-1.35,1.518-2.531,1.518a9.17,9.17,0,0,1-4.049-.844l-.591-.253L248,190.785a13.679,13.679,0,0,0,4.809.844c4.471,0,7.424-2.109,7.424-5.315,0-1.772-1.1-3.121-3.628-4.218-1.518-.759-2.446-1.181-2.446-1.94,0-.675.759-1.35,2.446-1.35a7.738,7.738,0,0,1,3.206.59l.422.169.675-3.29Z" transform="translate(-221.848 -175.6)" fill="#293688"/>
        <path id="Path_101" data-name="Path 101" d="M366.92,180.4c-1.012,0-1.772.084-2.193,1.1L358.4,195.585h4.555l.844-2.531h5.4l.506,2.531h4.049L370.211,180.4Zm-1.94,10.123c.253-.759,1.687-4.471,1.687-4.471s.337-.928.59-1.518l.253,1.434s.844,3.8,1.012,4.64H364.98Z" transform="translate(-320.606 -179.894)" fill="#3c58bf"/>
        <path id="Path_102" data-name="Path 102" d="M367.933,180.4c-1.012,0-1.772.084-2.193,1.1L358.4,195.585h4.556l.844-2.531h5.4l.506,2.531h4.049L370.211,180.4Zm-2.953,10.123c.337-.844,1.687-4.471,1.687-4.471s.337-.928.59-1.518l.253,1.434s.844,3.8,1.012,4.64H364.98Z" transform="translate(-320.606 -179.894)" fill="#293688"/>
        <path id="Path_103" data-name="Path 103" d="M57.527,191.745l-.422-2.193a12.229,12.229,0,0,0-5.905-6.664l3.8,13.5h4.555L66.385,181.2H61.829Z" transform="translate(-45.801 -180.609)" fill="#3c58bf"/>
        <path id="Path_104" data-name="Path 104" d="M57.527,191.745l-.422-2.193a12.229,12.229,0,0,0-5.905-6.664l3.8,13.5h4.555L66.385,181.2H62.673Z" transform="translate(-45.801 -180.609)" fill="#293688"/>
        <path id="Path_105" data-name="Path 105" d="M0,180.4l.759.169c5.4,1.265,9.111,4.471,10.545,8.267l-1.518-7.171c-.253-1.012-1.012-1.265-1.94-1.265Z" transform="translate(0 -179.894)" fill="#ffbc00"/>
        <path id="Path_106" data-name="Path 106" d="M0,180.4H0c5.4,1.265,9.87,4.555,11.3,8.352l-1.434-5.99a2.059,2.059,0,0,0-2.025-1.6Z" transform="translate(0 -179.894)" fill="#f7981d"/>
        <path id="Path_107" data-name="Path 107" d="M0,180.4H0c5.4,1.265,9.87,4.555,11.3,8.352l-1.012-3.29a2.975,2.975,0,0,0-1.772-2.446Z" transform="translate(0 -179.894)" fill="#ed7c00"/>
        <g id="Group_67" data-name="Group 67" transform="translate(5.483 2.193)">
          <path id="Path_108" data-name="Path 108" d="M62.461,204.836l-2.868-2.868-1.35,3.206-.337-2.109A12.229,12.229,0,0,0,52,196.4l3.8,13.5h4.556Z" transform="translate(-52 -196.4)" fill="#051244"/>
          <path id="Path_109" data-name="Path 109" d="M189.1,292.912l-3.628-3.712-.675,3.712Z" transform="translate(-170.796 -279.414)" fill="#051244"/>
          <path id="Path_110" data-name="Path 110" d="M255.339,274.8h0c.337.337.506.591.422.928,0,1.012-1.35,1.518-2.531,1.518a9.17,9.17,0,0,1-4.049-.844l-.591-.253L248,279.608a13.68,13.68,0,0,0,4.809.844c2.7,0,4.893-.759,6.158-2.109Z" transform="translate(-227.332 -266.533)" fill="#051244"/>
          <path id="Path_111" data-name="Path 111" d="M364,230.651h3.965l.844-2.531h5.4l.506,2.531h4.049l-1.434-6.158-5.062-4.893.253,1.35s.844,3.8,1.012,4.64H369.99c.337-.844,1.687-4.471,1.687-4.471s.337-.928.591-1.519" transform="translate(-331.099 -217.154)" fill="#051244"/>
        </g>
      </g>
      <g id="mastercard" transform="translate(1459.315 2935)">
        <path id="Path_112" data-name="Path 112" d="M227.361,113.68a12.88,12.88,0,0,1-25.761,0h0a12.88,12.88,0,1,1,25.761,0Z" transform="translate(-184.426 -100.8)" fill="#ffb600"/>
        <path id="Path_113" data-name="Path 113" d="M214.48,100.8a12.914,12.914,0,0,1,12.88,12.88h0a12.88,12.88,0,0,1-25.761,0" transform="translate(-184.426 -100.8)" fill="#f7981d"/>
        <path id="Path_114" data-name="Path 114" d="M352.8,100.8a12.914,12.914,0,0,1,12.88,12.88h0a12.87,12.87,0,0,1-12.88,12.88" transform="translate(-322.746 -100.8)" fill="#ff8500"/>
        <path id="Path_115" data-name="Path 115" d="M12.744,100.8a12.881,12.881,0,0,0,.136,25.76,13.03,13.03,0,0,0,8.655-3.339h0a12.248,12.248,0,0,0,1.295-1.363H20.172a15.725,15.725,0,0,1-.954-1.295h4.566a8.73,8.73,0,0,0,.75-1.363H18.469a8.123,8.123,0,0,1-.545-1.363h7.088a13.532,13.532,0,0,0,.682-4.089,17.59,17.59,0,0,0-.273-2.726H17.515a9.964,9.964,0,0,1,.341-1.363h7.088A8.122,8.122,0,0,0,24.4,108.3h-6a13.511,13.511,0,0,1,.75-1.363h4.566a6.481,6.481,0,0,0-1.022-1.363H20.172a11.618,11.618,0,0,1,1.295-1.295,12.576,12.576,0,0,0-8.655-3.339C12.812,100.8,12.812,100.8,12.744,100.8Z" transform="translate(0 -100.8)" fill="#ff5050"/>
        <path id="Path_116" data-name="Path 116" d="M0,115.144a12.87,12.87,0,0,0,12.88,12.88,13.03,13.03,0,0,0,8.655-3.339h0a12.246,12.246,0,0,0,1.295-1.363H20.172a15.721,15.721,0,0,1-.954-1.295h4.566a8.73,8.73,0,0,0,.75-1.363H18.469a8.123,8.123,0,0,1-.545-1.363h7.088a13.532,13.532,0,0,0,.682-4.089,17.59,17.59,0,0,0-.273-2.726H17.515a9.962,9.962,0,0,1,.341-1.363h7.088a8.122,8.122,0,0,0-.545-1.363h-6a13.513,13.513,0,0,1,.75-1.363h4.566a6.481,6.481,0,0,0-1.022-1.363H20.172a11.618,11.618,0,0,1,1.295-1.295,12.576,12.576,0,0,0-8.655-3.339h-.068" transform="translate(0 -102.264)" fill="#e52836"/>
        <path id="Path_117" data-name="Path 117" d="M149.736,128.024a13.03,13.03,0,0,0,8.655-3.339h0a12.249,12.249,0,0,0,1.295-1.363h-2.658a15.718,15.718,0,0,1-.954-1.295h4.566a8.73,8.73,0,0,0,.75-1.363h-6.065a8.124,8.124,0,0,1-.545-1.363h7.088a13.531,13.531,0,0,0,.682-4.089,17.594,17.594,0,0,0-.273-2.726H154.37a9.959,9.959,0,0,1,.341-1.363H161.8a8.122,8.122,0,0,0-.545-1.363h-6a13.512,13.512,0,0,1,.75-1.363h4.566a6.481,6.481,0,0,0-1.022-1.363h-2.522a11.618,11.618,0,0,1,1.295-1.295,12.576,12.576,0,0,0-8.655-3.339H149.6" transform="translate(-136.856 -102.264)" fill="#cb2026"/>
        <g id="Group_68" data-name="Group 68" transform="translate(1.227 9.541)">
          <path id="Path_118" data-name="Path 118" d="M183.576,226l.2-1.159a2.952,2.952,0,0,1-.341.068c-.477,0-.545-.273-.477-.409l.409-2.385h.75l.2-1.295h-.682l.136-.818h-1.363s-.818,4.5-.818,5.043a1.023,1.023,0,0,0,1.09,1.159A2.092,2.092,0,0,0,183.576,226Z" transform="translate(-167.357 -219.387)" fill="#fff"/>
          <path id="Path_119" data-name="Path 119" d="M210.4,231.774a2.168,2.168,0,0,0,2.385,2.385,3.539,3.539,0,0,0,1.431-.2l.273-1.295a4.086,4.086,0,0,1-1.431.341c-1.5,0-1.227-1.09-1.227-1.09h2.794a8.837,8.837,0,0,0,.2-1.227,1.846,1.846,0,0,0-1.976-1.976C211.422,228.571,210.4,230.07,210.4,231.774Zm2.385-1.976c.75,0,.613.886.613.954h-1.5C211.9,230.684,212.036,229.8,212.785,229.8Z" transform="translate(-193.703 -227.344)" fill="#fff"/>
          <path id="Path_120" data-name="Path 120" d="M299.748,219.41l.273-1.5a3.349,3.349,0,0,1-1.159.341c-.954,0-1.363-.75-1.363-1.567,0-1.636.818-2.522,1.772-2.522a2.276,2.276,0,0,1,1.227.409l.2-1.431a4.792,4.792,0,0,0-1.567-.341c-1.567,0-3.135,1.363-3.135,3.953,0,1.7.818,2.862,2.453,2.862A6.115,6.115,0,0,0,299.748,219.41Z" transform="translate(-272.011 -212.8)" fill="#fff"/>
          <path id="Path_121" data-name="Path 121" d="M88.99,227.2a4.827,4.827,0,0,0-1.636.273l-.2,1.159a4.028,4.028,0,0,1,1.5-.273c.477,0,.886.068.886.477,0,.273-.068.341-.068.341h-.613c-1.159,0-2.453.477-2.453,2.044,0,1.227.818,1.5,1.295,1.5a2.048,2.048,0,0,0,1.431-.613l-.068.545h1.227l.545-3.748A1.615,1.615,0,0,0,88.99,227.2Zm.273,3.067c0,.2-.136,1.295-.954,1.295a.532.532,0,0,1-.545-.545c0-.341.2-.818,1.227-.818A1.074,1.074,0,0,0,89.262,230.267Z" transform="translate(-80.266 -225.973)" fill="#fff"/>
          <path id="Path_122" data-name="Path 122" d="M136.767,231.988a1.747,1.747,0,0,0,2.045-1.772c0-1.7-1.636-1.363-1.636-2.044,0-.341.273-.477.75-.477.2,0,.954.068.954.068l.2-1.227a5.178,5.178,0,0,0-1.295-.136c-1.022,0-2.044.409-2.044,1.772,0,1.567,1.7,1.431,1.7,2.044,0,.409-.477.477-.818.477a4.457,4.457,0,0,1-1.227-.2l-.2,1.227C135.268,231.852,135.609,231.988,136.767,231.988Z" transform="translate(-124.909 -225.241)" fill="#fff"/>
          <path id="Path_123" data-name="Path 123" d="M431.085,214.4l-.273,1.84a1.89,1.89,0,0,0-1.295-.682c-1.227,0-2.317,1.5-2.317,3.271,0,1.09.545,2.249,1.7,2.249a1.819,1.819,0,0,0,1.295-.545l-.068.477h1.363l1.022-6.542Zm-.613,3.612c0,.75-.341,1.7-1.09,1.7-.477,0-.75-.409-.75-1.09,0-1.09.477-1.772,1.09-1.772C430.2,216.853,430.471,217.194,430.471,218.012Z" transform="translate(-392.035 -214.264)" fill="#fff"/>
          <path id="Path_124" data-name="Path 124" d="M15.695,220.942l.818-4.907.136,4.907H17.6l1.772-4.907-.75,4.907h1.431l1.09-6.542H18.9l-1.363,4.021-.068-4.021H15.49l-1.09,6.542Z" transform="translate(-14.4 -214.264)" fill="#fff"/>
          <path id="Path_125" data-name="Path 125" d="M261.5,234.116c.409-2.249.477-4.089,1.431-3.748a5.353,5.353,0,0,1,.477-1.567h-.273c-.613,0-1.09.818-1.09.818l.136-.75h-1.295L260,234.184h1.5Z" transform="translate(-239.078 -227.437)" fill="#fff"/>
          <path id="Path_126" data-name="Path 126" d="M348.99,227.2a4.827,4.827,0,0,0-1.636.273l-.2,1.159a4.028,4.028,0,0,1,1.5-.273c.477,0,.886.068.886.477,0,.273-.068.341-.068.341h-.613c-1.159,0-2.453.477-2.453,2.044,0,1.227.818,1.5,1.295,1.5a2.047,2.047,0,0,0,1.431-.613l-.068.545h1.227l.545-3.748A1.591,1.591,0,0,0,348.99,227.2Zm.341,3.067c0,.2-.136,1.295-.954,1.295a.532.532,0,0,1-.545-.545c0-.341.2-.818,1.227-.818C349.262,230.267,349.262,230.267,349.33,230.267Z" transform="translate(-318.118 -225.973)" fill="#fff"/>
          <path id="Path_127" data-name="Path 127" d="M395.9,234.116c.409-2.249.477-4.089,1.431-3.748a5.351,5.351,0,0,1,.477-1.567h-.273c-.613,0-1.09.818-1.09.818l.136-.75h-1.295l-.886,5.316h1.5Z" transform="translate(-362.029 -227.437)" fill="#fff"/>
        </g>
        <g id="Group_69" data-name="Group 69" transform="translate(1.227 9.541)">
          <path id="Path_128" data-name="Path 128" d="M180,225.043a1.023,1.023,0,0,0,1.09,1.159,2.6,2.6,0,0,0,1.022-.2l.2-1.159a2.951,2.951,0,0,1-.341.068c-.477,0-.545-.273-.477-.409l.409-2.385h.75l.2-1.295h-.682l.136-.818" transform="translate(-165.893 -219.387)" fill="#dce5e5"/>
          <path id="Path_129" data-name="Path 129" d="M218.4,231.774c0,1.908.613,2.385,1.7,2.385a3.539,3.539,0,0,0,1.431-.2l.273-1.295a4.085,4.085,0,0,1-1.431.341c-1.5,0-1.227-1.09-1.227-1.09h2.794a8.835,8.835,0,0,0,.2-1.227,1.846,1.846,0,0,0-1.976-1.976C218.741,228.571,218.4,230.07,218.4,231.774Zm1.7-1.976c.75,0,.886.886.886.954h-1.772C219.218,230.684,219.354,229.8,220.1,229.8Z" transform="translate(-201.022 -227.344)" fill="#dce5e5"/>
          <path id="Path_130" data-name="Path 130" d="M307.067,219.41l.273-1.5a3.349,3.349,0,0,1-1.159.341c-.954,0-1.363-.75-1.363-1.567,0-1.636.818-2.522,1.772-2.522a2.276,2.276,0,0,1,1.227.409l.2-1.431a4.792,4.792,0,0,0-1.567-.341c-1.567,0-2.453,1.363-2.453,3.953,0,1.7.136,2.862,1.772,2.862A6.116,6.116,0,0,0,307.067,219.41Z" transform="translate(-279.33 -212.8)" fill="#dce5e5"/>
          <path id="Path_131" data-name="Path 131" d="M87.15,230.163a4.029,4.029,0,0,1,1.5-.273c.477,0,.886.068.886.477,0,.273-.068.341-.068.341h-.613c-1.159,0-2.453.477-2.453,2.044,0,1.227.818,1.5,1.295,1.5a2.048,2.048,0,0,0,1.431-.613l-.068.545h1.227l.545-3.748c0-1.567-1.363-1.636-1.908-1.636m1.022,2.93a2.231,2.231,0,0,1-1.636,1.295.532.532,0,0,1-.545-.545c0-.341.2-.818,1.227-.818A5.568,5.568,0,0,0,89.944,231.73Z" transform="translate(-80.266 -227.437)" fill="#dce5e5"/>
          <path id="Path_132" data-name="Path 132" d="M136,231.852a5.768,5.768,0,0,0,1.567.136,1.747,1.747,0,0,0,2.045-1.772c0-1.7-1.636-1.363-1.636-2.044,0-.341.273-.477.75-.477.2,0,.954.068.954.068l.2-1.227a5.178,5.178,0,0,0-1.295-.136c-1.022,0-1.363.409-1.363,1.772,0,1.567,1.022,1.431,1.022,2.044,0,.409-.477.477-.818.477" transform="translate(-125.641 -225.241)" fill="#dce5e5"/>
          <path id="Path_133" data-name="Path 133" d="M438.077,216.972a1.889,1.889,0,0,0-1.295-.682c-1.227,0-1.636,1.5-1.636,3.271,0,1.09-.136,2.249,1.022,2.249a1.819,1.819,0,0,0,1.295-.545l-.068.477h1.363l1.022-6.542m-1.772,3.544c0,.75-.613,1.7-1.363,1.7-.477,0-.75-.409-.75-1.09,0-1.09.477-1.772,1.09-1.772A1.041,1.041,0,0,1,438.009,218.744Z" transform="translate(-399.3 -214.996)" fill="#dce5e5"/>
          <path id="Path_134" data-name="Path 134" d="M15.695,220.942l.818-4.907.136,4.907H17.6l1.772-4.907-.75,4.907h1.431l1.09-6.542h-1.7l-1.908,4.021-.068-4.021h-.75L14.4,220.942Z" transform="translate(-14.4 -214.264)" fill="#dce5e5"/>
          <path id="Path_135" data-name="Path 135" d="M260.8,234.116h1.431c.409-2.249.477-4.089,1.431-3.748a5.35,5.35,0,0,1,.477-1.567h-.273c-.613,0-1.09.818-1.09.818l.136-.75" transform="translate(-239.81 -227.437)" fill="#dce5e5"/>
          <path id="Path_136" data-name="Path 136" d="M347.15,230.163a4.028,4.028,0,0,1,1.5-.273c.477,0,.886.068.886.477,0,.273-.068.341-.068.341h-.613c-1.159,0-2.453.477-2.453,2.044,0,1.227.818,1.5,1.295,1.5a2.048,2.048,0,0,0,1.431-.613l-.068.545h1.227l.545-3.748c0-1.567-1.363-1.636-1.908-1.636m1.022,2.93a2.231,2.231,0,0,1-1.636,1.295.532.532,0,0,1-.545-.545c0-.341.2-.818,1.227-.818A6,6,0,0,0,349.944,231.73Z" transform="translate(-318.118 -227.437)" fill="#dce5e5"/>
          <path id="Path_137" data-name="Path 137" d="M395.2,234.116h1.431c.409-2.249.477-4.089,1.431-3.748a5.35,5.35,0,0,1,.477-1.567h-.273c-.613,0-1.09.818-1.09.818l.136-.75" transform="translate(-362.761 -227.437)" fill="#dce5e5"/>
        </g>
      </g>
    </g>
  </g>
</svg>
