<svg id="icon" xmlns="http://www.w3.org/2000/svg" width="12.393" height="10.981" viewBox="0 0 12.393 10.981">
  <g id="c14_house" transform="translate(0)">
    <path id="Path_48" data-name="Path 48" d="M3.588,14.547a.257.257,0,0,0,.26.277l3.124,0,0-2.56s-.044-.422.365-.422h1.3a.4.4,0,0,1,.455.422l-.006,2.552h3.058a.32.32,0,0,0,.328-.345V9.747L8.163,5.913,3.588,9.747Z" transform="translate(-1.903 -3.842)" fill="#0a0a0a"/>
    <path id="Path_49" data-name="Path 49" d="M0,7.052s.388.716,1.236,0L6.3,2.768l4.746,4.257c.981.707,1.348,0,1.348,0L6.3,1.5Z" transform="translate(0 -1.504)" fill="#0a0a0a"/>
    <path id="Path_50" data-name="Path 50" d="M21.895,4.175H20.674l.005,1.481,1.215,1.032Z" transform="translate(-10.965 -2.921)" fill="#0a0a0a"/>
  </g>
</svg>
