<svg xmlns="http://www.w3.org/2000/svg" xmlns:xlink="http://www.w3.org/1999/xlink" width="20" height="20" viewBox="0 0 20 20"><defs><path id="gva2a" d="M1282 499.368c-5.166 0-9.368-4.202-9.368-9.368s4.202-9.368 9.368-9.368 9.368 4.202 9.368 9.368-4.202 9.368-9.368 9.368zm7.071-16.44A9.934 9.934 0 0 0 1282 480a9.934 9.934 0 0 0-7.071 2.929A9.934 9.934 0 0 0 1272 490a9.934 9.934 0 0 0 2.929 7.071A9.934 9.934 0 0 0 1282 500a9.934 9.934 0 0 0 7.071-2.929A9.935 9.935 0 0 0 1292 490a9.934 9.934 0 0 0-2.929-7.071z"/><path id="gva2b" d="M1287.181 493.332c0 1.02-.83 1.85-1.849 1.85h-6.664c-1.02 0-1.85-.83-1.85-1.85v-6.664c0-1.02.83-1.85 1.85-1.85h6.664c1.02 0 1.85.83 1.85 1.85v6.664zm-1.849-9.1h-6.664a2.439 2.439 0 0 0-2.436 2.436v6.664a2.439 2.439 0 0 0 2.436 2.436h6.664a2.439 2.439 0 0 0 2.436-2.436v-6.664a2.439 2.439 0 0 0-2.436-2.436z"/><path id="gva2c" d="M1285.026 489.827a3.039 3.039 0 0 0-2.887-2.855 3.034 3.034 0 0 0-3.166 3.17 3.039 3.039 0 0 0 2.856 2.884 3.013 3.013 0 0 0 1.77-.453.29.29 0 0 0 .053-.452l-.005-.004a.292.292 0 0 0-.361-.04c-.381.237-.83.372-1.312.367a2.454 2.454 0 0 1-2.417-2.514 2.447 2.447 0 0 1 2.6-2.37 2.45 2.45 0 0 1 2.279 2.235c.04.488-.065.95-.276 1.348a.292.292 0 0 0 .049.344l.004.004a.29.29 0 0 0 .46-.065c.253-.473.385-1.02.353-1.6z"/><path id="gva2d" d="M1284.608 486.186a.782.782 0 1 1 1.565 0 .782.782 0 0 1-1.565 0z"/></defs><g><g transform="translate(-1272 -480)"><g><g><g><use fill="#9e3ffc" xlink:href="#gva2a"/></g></g></g><g><g><g><use fill="#9e3ffc" xlink:href="#gva2b"/></g></g></g><g><g><g><use fill="#9e3ffc" xlink:href="#gva2c"/></g></g></g><g><g><g><use fill="#9e3ffc" xlink:href="#gva2d"/></g></g></g></g></g></svg>