<svg id="instagram_2_" data-name="instagram (2)" xmlns="http://www.w3.org/2000/svg" width="20" height="20" viewBox="0 0 20 20">
  <g id="Group_17" data-name="Group 17" transform="translate(0 0)">
    <g id="Group_16" data-name="Group 16">
      <path id="Path_62" data-name="Path 62" d="M17.071,2.929A10,10,0,1,0,2.929,17.071,10,10,0,1,0,17.071,2.929ZM10,19.368A9.368,9.368,0,1,1,19.368,10,9.379,9.379,0,0,1,10,19.368Z" transform="translate(0 0)" fill="#0a0a0a"/>
    </g>
  </g>
  <g id="Group_19" data-name="Group 19" transform="translate(4.232 4.232)">
    <g id="Group_18" data-name="Group 18">
      <path id="Path_63" data-name="Path 63" d="M106.111,97.011H99.447a2.439,2.439,0,0,0-2.436,2.436v6.664a2.439,2.439,0,0,0,2.436,2.436h6.664a2.439,2.439,0,0,0,2.436-2.436V99.447A2.439,2.439,0,0,0,106.111,97.011Zm1.849,9.1a1.851,1.851,0,0,1-1.849,1.849H99.447a1.851,1.851,0,0,1-1.849-1.849V99.447A1.851,1.851,0,0,1,99.447,97.6h6.664a1.851,1.851,0,0,1,1.849,1.849v6.664Z" transform="translate(-97.011 -97.011)" fill="#0a0a0a"/>
    </g>
  </g>
  <g id="Group_21" data-name="Group 21" transform="translate(6.969 6.969)">
    <g id="Group_20" data-name="Group 20">
      <path id="Path_64" data-name="Path 64" d="M178.519,175.321a3.034,3.034,0,1,0-1.426,2.746.291.291,0,0,0,.052-.452l0,0a.292.292,0,0,0-.362-.039,2.429,2.429,0,0,1-1.312.367,2.447,2.447,0,1,1,2.186-1.3.292.292,0,0,0,.049.344l0,0a.29.29,0,0,0,.46-.066A3.012,3.012,0,0,0,178.519,175.321Z" transform="translate(-172.463 -172.464)" fill="#0a0a0a"/>
    </g>
  </g>
  <g id="Group_23" data-name="Group 23" transform="translate(12.608 5.404)">
    <g id="Group_22" data-name="Group 22">
      <circle id="Ellipse_6" data-name="Ellipse 6" cx="0.782" cy="0.782" r="0.782" fill="#0a0a0a"/>
    </g>
  </g>
</svg>
