<svg xmlns="http://www.w3.org/2000/svg" xmlns:xlink="http://www.w3.org/1999/xlink" width="9" height="9" viewBox="0 0 9 9"><defs><path id="eddva" d="M1443.124 18.814a.921.921 0 0 1-.938-.938c0-.532.407-.938.938-.938.532 0 .938.406.938.938a.921.921 0 0 1-.938.938zm-.782-2.814a2.655 2.655 0 0 0-2.657 2.657c0 .313.063.626.156.938l-3.282 3.283v1.563h1.563v-.938h.938v-.937h.938l1.407-1.407c.281.093.594.156.937.156a2.655 2.655 0 0 0 2.658-2.658 2.655 2.655 0 0 0-2.658-2.657z"/></defs><g><g transform="translate(-1436 -16)"><g><use fill="#fff" xlink:href="#eddva"/></g></g></g></svg>