<svg id="listing-option" xmlns="http://www.w3.org/2000/svg" width="12.447" height="9.78" viewBox="0 0 12.447 9.78">
  <g id="Group_13" data-name="Group 13" transform="translate(0 0)">
    <path id="Path_40" data-name="Path 40" d="M1.556,164.453H.222a.213.213,0,0,0-.156.066.214.214,0,0,0-.066.156v1.334a.213.213,0,0,0,.066.156.214.214,0,0,0,.156.066H1.556a.225.225,0,0,0,.222-.222v-1.334a.225.225,0,0,0-.222-.222Z" transform="translate(0 -161.786)" fill="#0a0a0a"/>
    <path id="Path_41" data-name="Path 41" d="M1.556,383.722H.222a.213.213,0,0,0-.156.066.214.214,0,0,0-.066.156v1.334a.214.214,0,0,0,.066.156.213.213,0,0,0,.156.066H1.556a.225.225,0,0,0,.222-.222v-1.334a.225.225,0,0,0-.222-.222Z" transform="translate(0 -375.72)" fill="#0a0a0a"/>
    <path id="Path_42" data-name="Path 42" d="M1.556,274.082H.222a.214.214,0,0,0-.156.066A.213.213,0,0,0,0,274.3v1.334a.214.214,0,0,0,.066.156.213.213,0,0,0,.156.066H1.556a.225.225,0,0,0,.222-.222V274.3a.226.226,0,0,0-.222-.222Z" transform="translate(0 -268.747)" fill="#0a0a0a"/>
    <path id="Path_43" data-name="Path 43" d="M1.556,54.817H.222a.213.213,0,0,0-.156.066A.214.214,0,0,0,0,55.039v1.334a.214.214,0,0,0,.066.156.214.214,0,0,0,.156.066H1.556a.225.225,0,0,0,.222-.222V55.039a.225.225,0,0,0-.222-.222Z" transform="translate(0 -54.817)" fill="#0a0a0a"/>
    <path id="Path_44" data-name="Path 44" d="M119.194,383.722h-9.336a.225.225,0,0,0-.222.222v1.334a.225.225,0,0,0,.222.222h9.336a.225.225,0,0,0,.222-.222v-1.334a.225.225,0,0,0-.222-.222Z" transform="translate(-106.969 -375.72)" fill="#0a0a0a"/>
    <path id="Path_45" data-name="Path 45" d="M119.194,274.082h-9.336a.225.225,0,0,0-.222.222v1.334a.225.225,0,0,0,.222.222h9.336a.225.225,0,0,0,.222-.222V274.3a.225.225,0,0,0-.222-.222Z" transform="translate(-106.969 -268.747)" fill="#0a0a0a"/>
    <path id="Path_46" data-name="Path 46" d="M119.35,54.883a.214.214,0,0,0-.156-.066h-9.336a.225.225,0,0,0-.222.222v1.334a.225.225,0,0,0,.222.222h9.336a.225.225,0,0,0,.222-.222V55.039A.214.214,0,0,0,119.35,54.883Z" transform="translate(-106.969 -54.817)" fill="#0a0a0a"/>
    <path id="Path_47" data-name="Path 47" d="M119.194,164.453h-9.336a.225.225,0,0,0-.222.222v1.334a.225.225,0,0,0,.222.222h9.336a.225.225,0,0,0,.222-.222v-1.334a.225.225,0,0,0-.222-.222Z" transform="translate(-106.969 -161.786)" fill="#0a0a0a"/>
  </g>
</svg>
