<svg xmlns="http://www.w3.org/2000/svg" xmlns:xlink="http://www.w3.org/1999/xlink" width="35" height="23" viewBox="0 0 35 23"><defs><path id="jmk8a" d="M36.18 12.361l-.756 2.82s3.005-.402 5.402.24c2.397.643 4.8 2.493 4.8 2.493l.766-2.858S44.178 13 41.616 12.314c-2.56-.687-5.437.047-5.437.047z"/><path id="jmk8b" d="M48.816 14.968a.444.444 0 1 1 .23-.859.444.444 0 0 1-.23.86zm.6-1.516l-.072.267-.455-.44c.23-.077.618-.165.527.173zm.009 1.739l1.16-.274-.863-.833.071-.267s.674-1.372-1.153-1.05c-.094.024-.15.057-.18.097l-5.7-5.507-10.147 2.678 2.918 2.4.131-.49s3.207-.819 6.064-.053c2.856.765 5.324 3.057 5.324 3.057l-.23.855 2.099-.494L47.85 19.3l-.61-.164-.38 1.418.962-.344.75.803.38-1.418-.66-.177 1.133-4.226z"/></defs><g><g transform="translate(-16 -7)"><g><g><text fill="#fff" style="line-height:81.05730438232422px;font-kerning:normal" dominant-baseline="text-before-edge" font-family="'Intro','Intro'" font-size="18.7" font-style="none" font-weight="400" letter-spacing=".75" transform="translate(16 16)"><tspan fill="#9e3ffc">t</tspan><tspan>m</tspan></text></g></g><g><g><g><use fill="#9e3ffc" xlink:href="#jmk8a"/></g><g><use fill="#9e3ffc" xlink:href="#jmk8b"/></g></g></g></g></g></svg>