<svg xmlns="http://www.w3.org/2000/svg" width="107.951" height="28" viewBox="0 0 107.951 28">
  <g id="logo" transform="translate(-373 -3)">
    <text id="teach_me" data-name="teach me" transform="translate(373 8)" fill="#9e3ffc" font-size="18.702" font-family="Intro" letter-spacing="0.04em"><tspan x="0" y="18">teach </tspan><tspan y="18" fill="#fff">me</tspan></text>
    <g id="black-graduation-cap-tool-of-university-student-for-head" transform="matrix(0.966, 0.259, -0.259, 0.966, 464.505, -2.757)">
      <g id="Group_1" data-name="Group 1" transform="translate(0 5.96)">
        <path id="Path_1" data-name="Path 1" d="M6.952,16.146v2.919A16.285,16.285,0,0,1,12.233,17.9a16.291,16.291,0,0,1,5.281,1.166v-2.96a13.211,13.211,0,0,0-5.322-1.412A12.332,12.332,0,0,0,6.952,16.146Z" transform="translate(-2.905 -9.609)" fill="#9e3ffc"/>
        <path id="Path_2" data-name="Path 2" d="M17.573,11.8l1.05-.565-1.05-.582V10.38s.3-1.5-1.385-.715a.309.309,0,0,0-.15.14L9.107,5.96,0,11.172l3.439,1.562v-.507a13.772,13.772,0,0,1,5.843-1.62,14.724,14.724,0,0,1,5.934,1.575v.885l1.9-1.02v4.129h-.632v1.468l.841-.581.933.581V16.176h-.683V11.8Zm-.459-1.677V10.4l-.554-.307C16.763,9.96,17.115,9.774,17.115,10.125Zm-.187,1.619a.444.444,0,1,1,.444-.444A.444.444,0,0,1,16.927,11.744Z" transform="translate(0 -5.96)" fill="#9e3ffc"/>
      </g>
    </g>
  </g>
</svg>
