<svg xmlns="http://www.w3.org/2000/svg" width="7.605" height="10" viewBox="0 0 7.605 10">
  <g id="man-user" transform="translate(-1400 -15)">
    <path id="Path_19" data-name="Path 19" d="M106.548,4.891a2.261,2.261,0,0,0,2.013-2.445c0-1.351-.3-2.445-2.013-2.445s-2.013,1.095-2.013,2.445A2.261,2.261,0,0,0,106.548,4.891Z" transform="translate(1297.255 15)" fill="#fff"/>
    <path id="Path_22" data-name="Path 22" d="M49.509,181.187c-.037-2.353-.345-3.023-2.7-3.447a1.652,1.652,0,0,1-2.2,0c-2.326.42-2.652,1.08-2.694,3.371,0,.187-.005.2-.006.175,0,.041,0,.116,0,.247,0,0,.56,1.128,3.8,1.128s3.8-1.128,3.8-1.128c0-.084,0-.143,0-.183A1.515,1.515,0,0,1,49.509,181.187Z" transform="translate(1358.092 -157.662)" fill="#fff"/>
  </g>
</svg>
