<svg xmlns="http://www.w3.org/2000/svg" xmlns:xlink="http://www.w3.org/1999/xlink" width="14" height="12" viewBox="0 0 14 12"><defs><path id="pxnaa" d="M1120.496 2214.882v-7.13h-2.376v7.13zm2.377 0h5.347c.475 0 .89-.297 1.069-.713l1.782-4.218a.859.859 0 0 0 .119-.416v-1.189c0-.653-.535-1.187-1.188-1.187h-3.743l.594-2.733v-.178c0-.238-.119-.476-.238-.654l-.653-.594-3.921 3.921a1.173 1.173 0 0 0-.357.832v5.94c0 .654.535 1.189 1.189 1.189z"/></defs><g><g transform="translate(-1118 -2203)"><use fill="#a8a8a8" xlink:href="#pxnaa"/></g></g></svg>