<svg xmlns="http://www.w3.org/2000/svg" xmlns:xlink="http://www.w3.org/1999/xlink" width="13" height="12" viewBox="0 0 13 12"><defs><path id="v1o7a" d="M1202.594 2351v7.13h2.376V2351zm-2.377 0h-5.347c-.475 0-.89.297-1.069.713l-1.782 4.218a.859.859 0 0 0-.12.416v1.188c0 .654.536 1.188 1.19 1.188h3.742l-.594 2.733v.178c0 .238.119.475.237.654l.654.594 3.921-3.921c.238-.238.356-.535.356-.832v-5.94c0-.654-.534-1.189-1.188-1.189z"/></defs><g><g transform="translate(-1192 -2351)"><use fill="#a8a8a8" xlink:href="#v1o7a"/></g></g></svg>