<svg xmlns="http://www.w3.org/2000/svg" width="12.283" height="12.283" viewBox="0 0 12.283 12.283">
  <g id="settings-work-tool" transform="translate(0)">
    <g id="Group_12" data-name="Group 12" transform="translate(0 0)">
      <path id="Path_39" data-name="Path 39" d="M12.247,5.46a.4.4,0,0,0-.395-.3,1.356,1.356,0,0,1-.928-2.36.341.341,0,0,0,.037-.463,6.077,6.077,0,0,0-.973-.983.342.342,0,0,0-.467.038,1.415,1.415,0,0,1-1.532.344A1.364,1.364,0,0,1,7.16.4a.341.341,0,0,0-.3-.359,6.131,6.131,0,0,0-1.382,0,.342.342,0,0,0-.3.351A1.366,1.366,0,0,1,4.332,1.7a1.419,1.419,0,0,1-1.52-.346.342.342,0,0,0-.463-.039,6.1,6.1,0,0,0-.994.982.342.342,0,0,0,.037.467A1.361,1.361,0,0,1,1.735,4.3,1.42,1.42,0,0,1,.4,5.126a.334.334,0,0,0-.355.3,6.152,6.152,0,0,0,0,1.4.406.406,0,0,0,.4.3,1.347,1.347,0,0,1,1.264.842,1.366,1.366,0,0,1-.343,1.519.341.341,0,0,0-.037.463,6.1,6.1,0,0,0,.972.983.342.342,0,0,0,.467-.037A1.413,1.413,0,0,1,4.3,10.55a1.362,1.362,0,0,1,.831,1.333.341.341,0,0,0,.3.359,6.112,6.112,0,0,0,1.382,0,.342.342,0,0,0,.3-.352,1.365,1.365,0,0,1,.84-1.31,1.417,1.417,0,0,1,1.521.346.343.343,0,0,0,.464.039,6.114,6.114,0,0,0,.994-.982A.341.341,0,0,0,10.9,9.52a1.361,1.361,0,0,1-.344-1.532,1.375,1.375,0,0,1,1.256-.833l.076,0a.342.342,0,0,0,.359-.3A6.147,6.147,0,0,0,12.247,5.46ZM6.154,8.2A2.049,2.049,0,1,1,8.2,6.155,2.051,2.051,0,0,1,6.154,8.2Z" transform="translate(-0.003 0)" fill="#0a0a0a" fill-rule="evenodd"/>
    </g>
  </g>
</svg>
