<svg xmlns="http://www.w3.org/2000/svg" xmlns:xlink="http://www.w3.org/1999/xlink" width="16" height="15" viewBox="0 0 16 15"><defs><path id="tqf6a" d="M197.605 769.457l-2.007-3.473a.298.298 0 1 1 .517-.298l1.45 2.51V755.39a.298.298 0 0 1 .598 0v12.805l1.45-2.508a.299.299 0 0 1 .517.298l-2.008 3.473a.299.299 0 0 1-.517 0z"/><path id="tqf6b" d="M208.025 769.457l-2.007-3.473a.298.298 0 1 1 .517-.298l1.451 2.51V755.39a.298.298 0 0 1 .597 0v12.805l1.45-2.508a.299.299 0 0 1 .517.298l-2.008 3.473a.299.299 0 0 1-.517 0z"/></defs><g><g transform="translate(-195 -755)"><use fill="#0a0a0a" xlink:href="#tqf6a"/></g><g transform="translate(-195 -755)"><use fill="#0a0a0a" xlink:href="#tqf6b"/></g></g></svg>