<svg id="target" xmlns="http://www.w3.org/2000/svg" width="12.393" height="12.391" viewBox="0 0 12.393 12.391">
  <g id="Group_11" data-name="Group 11" transform="translate(0 0)">
    <path id="Path_29" data-name="Path 29" d="M182.745,5.534a1.18,1.18,0,1,0,.866,1.137,1.161,1.161,0,0,0-.043-.314l3.288-3.288.532.071,1.664-1.664-1.259-.167L187.626.05l-1.664,1.664.071.532Z" transform="translate(-176.659 -0.05)" fill="#0a0a0a"/>
    <path id="Path_30" data-name="Path 30" d="M96.372,127.54l.973-.973a3.42,3.42,0,1,0,2.14,2.138l-.973.973a2.271,2.271,0,1,1-2.14-2.138Z" transform="translate(-90.474 -123.186)" fill="#0a0a0a"/>
    <path id="Path_31" data-name="Path 31" d="M9.85,37.509a4.514,4.514,0,1,1-2.14-2.14l.93-.93a5.769,5.769,0,1,0,2.138,2.138Z" transform="translate(0 -32.826)" fill="#0a0a0a"/>
  </g>
</svg>
