<svg xmlns="http://www.w3.org/2000/svg" xmlns:xlink="http://www.w3.org/1999/xlink" width="20" height="20" viewBox="0 0 20 20"><defs><path id="uqp5a" d="M1340 499.368c-5.166 0-9.368-4.202-9.368-9.368s4.202-9.368 9.368-9.368 9.368 4.202 9.368 9.368-4.202 9.368-9.368 9.368zm7.071-16.44A9.934 9.934 0 0 0 1340 480a9.934 9.934 0 0 0-7.071 2.929A9.934 9.934 0 0 0 1330 490a9.934 9.934 0 0 0 2.929 7.071A9.934 9.934 0 0 0 1340 500a9.934 9.934 0 0 0 7.071-2.929A9.935 9.935 0 0 0 1350 490a9.934 9.934 0 0 0-2.929-7.071z"/><path id="uqp5b" d="M1344.794 484.007a.307.307 0 0 0-.326-.027l-11.876 6.142a.307.307 0 0 0 .004.548l3.106 1.553v3.077a.308.308 0 0 0 .456.277l3.554-1.974 2.72 1.166a.308.308 0 0 0 .43-.219l.689-3.44a.307.307 0 0 0-.603-.121l-.614 3.07-2.518-1.08a.307.307 0 0 0-.27.014l-3.23 1.794v-2.754a.307.307 0 0 0-.17-.275l-2.735-1.368 10.771-5.571-.935 4.674a.307.307 0 0 0 .603.12l1.06-5.3a.307.307 0 0 0-.116-.306z"/><path id="uqp5c" d="M1338.989 490.602a.307.307 0 0 0-.058.08l-.646 1.293v-1.803l2.949-1.815zm4.553-4.068a.307.307 0 0 0-.402-.072l-5.324 3.276a.307.307 0 0 0-.146.262v3.276a.307.307 0 0 0 .582.137l1.206-2.412 4.06-4.06c.11-.11.12-.285.024-.407z"/></defs><g><g transform="translate(-1330 -480)"><g><g><g><use fill="#9e3ffc" xlink:href="#uqp5a"/></g></g></g><g><g><g><use fill="#9e3ffc" xlink:href="#uqp5b"/></g></g></g><g><g><g><use fill="#9e3ffc" xlink:href="#uqp5c"/></g></g></g></g></g></svg>