<svg id="telegram_1_" data-name="telegram (1)" xmlns="http://www.w3.org/2000/svg" width="20" height="20" viewBox="0 0 20 20">
  <g id="Group_25" data-name="Group 25" transform="translate(0 0)">
    <g id="Group_24" data-name="Group 24">
      <path id="Path_65" data-name="Path 65" d="M17.071,2.929A10,10,0,1,0,2.929,17.071,10,10,0,1,0,17.071,2.929ZM10,19.368A9.368,9.368,0,1,1,19.368,10,9.379,9.379,0,0,1,10,19.368Z" transform="translate(0 0)" fill="#0a0a0a"/>
    </g>
  </g>
  <g id="Group_27" data-name="Group 27" transform="translate(2.426 3.945)">
    <g id="Group_26" data-name="Group 26">
      <path id="Path_66" data-name="Path 66" d="M87.818,97.073a.307.307,0,0,0-.326-.027l-11.875,6.142a.307.307,0,0,0,0,.548l3.106,1.553v3.077a.317.317,0,0,0,.083.219.307.307,0,0,0,.374.058l3.554-1.974,2.72,1.166a.32.32,0,0,0,.184.024.308.308,0,0,0,.246-.242l.688-3.441a.307.307,0,0,0-.6-.121l-.614,3.07-2.519-1.079a.307.307,0,0,0-.27.014l-3.229,1.794V105.1a.307.307,0,0,0-.17-.275l-2.736-1.368,10.771-5.571-.935,4.674a.307.307,0,0,0,.6.12l1.06-5.3A.307.307,0,0,0,87.818,97.073Z" transform="translate(-75.451 -97.011)" fill="#0a0a0a"/>
    </g>
  </g>
  <g id="Group_29" data-name="Group 29" transform="translate(7.67 6.417)">
    <g id="Group_28" data-name="Group 28">
      <path id="Path_67" data-name="Path 67" d="M199.894,161.8a.307.307,0,0,0-.4-.071l-5.323,3.276a.307.307,0,0,0-.146.262v3.276a.307.307,0,0,0,.582.137l1.206-2.412,4.06-4.06A.307.307,0,0,0,199.894,161.8Zm-4.553,4.068a.307.307,0,0,0-.058.08l-.647,1.293v-1.8l2.949-1.815Z" transform="translate(-194.022 -161.683)" fill="#0a0a0a"/>
    </g>
  </g>
</svg>
