<svg xmlns="http://www.w3.org/2000/svg" xmlns:xlink="http://www.w3.org/1999/xlink" width="20" height="20" viewBox="0 0 20 20"><defs><path id="11f9a" d="M1368 499.368c-5.166 0-9.368-4.202-9.368-9.368s4.202-9.368 9.368-9.368 9.368 4.202 9.368 9.368-4.202 9.368-9.368 9.368zm7.071-16.44A9.934 9.934 0 0 0 1368 480a9.934 9.934 0 0 0-7.071 2.929A9.934 9.934 0 0 0 1358 490a9.934 9.934 0 0 0 2.929 7.071A9.934 9.934 0 0 0 1368 500a9.934 9.934 0 0 0 7.071-2.929A9.935 9.935 0 0 0 1378 490a9.934 9.934 0 0 0-2.929-7.071z"/><path id="11f9b" d="M1373.203 486.17c-.093-.17-.3-.195-.422-.052l-.004.005a.358.358 0 0 0-.037.396 7.269 7.269 0 0 1 .869 3.481c0 3.595-2.516 6.52-5.609 6.52-1.367 0-2.683-.579-3.707-1.628a.258.258 0 0 0-.185-.083h-1.585l.52-1.513a.368.368 0 0 0-.011-.269 7.4 7.4 0 0 1-.64-3.027c0-3.595 2.515-6.52 5.608-6.52 1.53 0 2.92.717 3.933 1.877a.247.247 0 0 0 .384-.002l.004-.004a.356.356 0 0 0-.003-.453c-1.112-1.272-2.637-2.059-4.318-2.059-3.397 0-6.16 3.213-6.16 7.161 0 1.107.222 2.207.645 3.193l-.626 1.818a.355.355 0 0 0 .087.373.26.26 0 0 0 .177.067h1.882c1.114 1.103 2.528 1.71 3.995 1.71 3.397 0 6.16-3.213 6.16-7.16a7.984 7.984 0 0 0-.957-3.83z"/><path id="11f9c" d="M1372.35 491.552a.316.316 0 0 0-.072-.104l-1.716-1.715a.304.304 0 0 0-.43 0l-.724.724c-.905-.348-1.517-.96-1.865-1.865l.725-.724a.304.304 0 0 0 0-.43l-1.721-1.721a.304.304 0 0 0-.43 0l-1.765 1.765a1.195 1.195 0 0 0-.129 1.548 20.814 20.814 0 0 0 2.439 2.818.302.302 0 0 0 .423-.003l.004-.005a.3.3 0 0 0-.003-.429 20.215 20.215 0 0 1-2.369-2.737.589.589 0 0 1 .065-.762l1.55-1.55 1.29 1.291-.645.645a.303.303 0 0 0-.074.31c.412 1.239 1.25 2.076 2.487 2.489.11.036.23.008.312-.074l.645-.645 1.29 1.29-1.549 1.55a.588.588 0 0 1-.762.065 20.21 20.21 0 0 1-1.159-.9.3.3 0 0 0-.405.02l-.004.003a.301.301 0 0 0 .02.445c.385.322.783.631 1.192.926a1.191 1.191 0 0 0 1.549-.129l1.764-1.764a.305.305 0 0 0 .066-.332z"/></defs><g><g transform="translate(-1358 -480)"><g><g><g><use fill="#9e3ffc" xlink:href="#11f9a"/></g></g></g><g><g><g><use fill="#9e3ffc" xlink:href="#11f9b"/></g></g></g><g><g><g><use fill="#9e3ffc" xlink:href="#11f9c"/></g></g></g></g></g></svg>