<svg id="whatsapp" xmlns="http://www.w3.org/2000/svg" width="20" height="20" viewBox="0 0 20 20">
  <g id="Group_32" data-name="Group 32" transform="translate(0 0)">
    <g id="Group_31" data-name="Group 31">
      <path id="Path_69" data-name="Path 69" d="M17.071,2.929A10,10,0,1,0,2.929,17.071,10,10,0,1,0,17.071,2.929ZM10,19.368A9.368,9.368,0,1,1,19.368,10,9.379,9.379,0,0,1,10,19.368Z" transform="translate(0 0)" fill="#0a0a0a"/>
    </g>
  </g>
  <g id="Group_34" data-name="Group 34" transform="translate(3.839 2.839)">
    <g id="Group_33" data-name="Group 33">
      <path id="Path_70" data-name="Path 70" d="M86.817,78.784a.251.251,0,0,0-.423-.052l0,0a.358.358,0,0,0-.036.4,7.269,7.269,0,0,1,.869,3.481c0,3.595-2.516,6.519-5.609,6.519a5.178,5.178,0,0,1-3.707-1.628.258.258,0,0,0-.184-.082H76.136l.521-1.514a.368.368,0,0,0-.012-.268A7.4,7.4,0,0,1,76,82.614c0-3.595,2.516-6.519,5.609-6.519a5.224,5.224,0,0,1,3.933,1.876.247.247,0,0,0,.384,0l0,0a.356.356,0,0,0,0-.452,5.737,5.737,0,0,0-4.318-2.059c-3.4,0-6.161,3.212-6.161,7.161a8.152,8.152,0,0,0,.645,3.193l-.626,1.818A.355.355,0,0,0,75.56,88a.259.259,0,0,0,.176.067h1.883a5.671,5.671,0,0,0,3.995,1.71c3.4,0,6.161-3.212,6.161-7.161A7.983,7.983,0,0,0,86.817,78.784Z" transform="translate(-75.453 -75.453)" fill="#0a0a0a"/>
    </g>
  </g>
  <g id="Group_36" data-name="Group 36" transform="translate(5.997 5.628)">
    <g id="Group_35" data-name="Group 35">
      <path id="Path_71" data-name="Path 71" d="M157.676,146.053a.316.316,0,0,0-.071-.1l-1.716-1.716a.3.3,0,0,0-.43,0l-.724.724a3.088,3.088,0,0,1-1.864-1.864l.724-.724a.3.3,0,0,0,0-.43l-1.721-1.721a.3.3,0,0,0-.43,0l-1.765,1.765a1.2,1.2,0,0,0-.129,1.548,20.814,20.814,0,0,0,2.438,2.818.3.3,0,0,0,.423,0l0,0a.3.3,0,0,0,0-.429,20.216,20.216,0,0,1-2.369-2.737.589.589,0,0,1,.065-.762l1.549-1.549,1.291,1.291-.645.645a.3.3,0,0,0-.074.31,3.753,3.753,0,0,0,2.487,2.488.3.3,0,0,0,.311-.074l.645-.645,1.291,1.291-1.55,1.549a.588.588,0,0,1-.762.065q-.6-.43-1.159-.9a.3.3,0,0,0-.4.019l0,0a.3.3,0,0,0,.02.444q.578.483,1.193.926a1.194,1.194,0,0,0,1.548-.129l1.765-1.765A.305.305,0,0,0,157.676,146.053Z" transform="translate(-149.324 -140.128)" fill="#0a0a0a"/>
    </g>
  </g>
</svg>
