<svg id="youtube_2_" data-name="youtube" xmlns="http://www.w3.org/2000/svg" width="20" height="20" viewBox="0 0 20 20">
  <g id="Group_73" data-name="Group 73" transform="translate(0 0)">
    <g id="Group_72" data-name="Group 72">
      <path id="Path_93" data-name="Path 93" d="M17.071,2.929A10,10,0,1,0,2.929,17.071,10,10,0,1,0,17.071,2.929ZM10,19.368A9.368,9.368,0,1,1,19.368,10,9.379,9.379,0,0,1,10,19.368Z" transform="translate(0 0)" fill="#9e3ffc"/>
    </g>
  </g>
  <g id="Group_75" data-name="Group 75" transform="translate(2.528 4.212)">
    <g id="Group_74" data-name="Group 74">
      <path id="Path_94" data-name="Path 94" d="M79.331,109.148a1.146,1.146,0,0,0-1.006-.971,54.638,54.638,0,0,0-12.283,0,1.146,1.146,0,0,0-1.006.971,30.935,30.935,0,0,0,0,8.941,1.146,1.146,0,0,0,1.006.971,54.578,54.578,0,0,0,6.142.346q1.31,0,2.619-.063a.316.316,0,1,0-.032-.631,54,54,0,0,1-8.658-.28.514.514,0,0,1-.452-.435,30.3,30.3,0,0,1,0-8.759.514.514,0,0,1,.452-.435,54.005,54.005,0,0,1,12.141,0,.514.514,0,0,1,.452.435,30.3,30.3,0,0,1,0,8.759.514.514,0,0,1-.452.435h0q-.974.11-1.952.185a.316.316,0,0,0-.292.315h0a.316.316,0,0,0,.339.315q.99-.076,1.977-.187a1.146,1.146,0,0,0,1.006-.971A30.935,30.935,0,0,0,79.331,109.148Z" transform="translate(-64.711 -107.831)" fill="#9e3ffc"/>
    </g>
  </g>
  <g id="Group_77" data-name="Group 77" transform="translate(7.579 6.809)">
    <g id="Group_76" data-name="Group 76">
      <path id="Path_95" data-name="Path 95" d="M199.957,177.224l-5.474-2.875a.316.316,0,0,0-.463.28v5.75a.316.316,0,0,0,.463.28l5.474-2.875a.316.316,0,0,0,0-.559Zm-5.3,2.632v-4.7l4.479,2.352Z" transform="translate(-194.021 -174.313)" fill="#9e3ffc"/>
    </g>
  </g>
</svg>
